<svg width="115" height="115" viewBox="0 0 115 115" fill="none" xmlns="http://www.w3.org/2000/svg">
<path d="M72.5 65.625H76.8125V68.5H69.625V59.875H72.5V65.625ZM66.75 45.5H43.75V42.625H66.75V45.5ZM71.0625 54.125C72.8444 54.125 74.5215 54.4619 76.0938 55.1357C77.666 55.8096 79.0361 56.738 80.2041 57.9209C81.3721 59.1038 82.293 60.474 82.9668 62.0312C83.6406 63.5885 83.985 65.2656 84 67.0625C84 68.8444 83.6631 70.5215 82.9893 72.0938C82.3154 73.666 81.387 75.0361 80.2041 76.2041C79.0212 77.3721 77.651 78.293 76.0938 78.9668C74.5365 79.6406 72.8594 79.985 71.0625 80C69.2806 80 67.6035 79.6631 66.0312 78.9893C64.459 78.3154 63.0889 77.387 61.9209 76.2041C60.7529 75.0212 59.832 73.651 59.1582 72.0938C58.4844 70.5365 58.14 68.8594 58.125 67.0625C58.125 65.2806 58.4619 63.6035 59.1357 62.0312C59.8096 60.459 60.738 59.0889 61.9209 57.9209C63.1038 56.7529 64.474 55.832 66.0312 55.1582C67.5885 54.4844 69.2656 54.14 71.0625 54.125ZM71.0625 77.125C72.4551 77.125 73.7578 76.863 74.9707 76.3389C76.1836 75.8148 77.2467 75.096 78.1602 74.1826C79.0736 73.2692 79.7923 72.2061 80.3164 70.9932C80.8405 69.7803 81.11 68.4701 81.125 67.0625C81.125 65.6699 80.863 64.3672 80.3389 63.1543C79.8148 61.9414 79.096 60.8783 78.1826 59.9648C77.2692 59.0514 76.2061 58.3327 74.9932 57.8086C73.7803 57.2845 72.4701 57.015 71.0625 57C69.6699 57 68.3672 57.262 67.1543 57.7861C65.9414 58.3102 64.8783 59.029 63.9648 59.9424C63.0514 60.8558 62.3327 61.9189 61.8086 63.1318C61.2845 64.3447 61.015 65.6549 61 67.0625C61 68.4551 61.262 69.7578 61.7861 70.9707C62.3102 72.1836 63.029 73.2467 63.9424 74.1602C64.8558 75.0736 65.9189 75.7923 67.1318 76.3164C68.3447 76.8405 69.6549 77.11 71.0625 77.125ZM64.1895 51.25C62.5573 51.9688 61.0599 52.9271 59.6973 54.125H43.75V51.25H64.1895ZM55.4072 59.875C55.1976 60.3392 55.0104 60.8109 54.8457 61.29C54.681 61.7692 54.5238 62.2559 54.374 62.75H43.75V59.875H55.4072ZM43.75 68.5H53.8799C53.9248 68.9792 53.9847 69.4583 54.0596 69.9375C54.1344 70.4167 54.2393 70.8958 54.374 71.375H43.75V68.5ZM57.0918 77.125C57.8405 78.1882 58.709 79.1465 59.6973 80H38V34H72.5V49.8799L71.7812 49.835C71.5417 49.82 71.3021 49.8125 71.0625 49.8125C70.8229 49.8125 70.5833 49.82 70.3438 49.835C70.1042 49.8499 69.8646 49.8649 69.625 49.8799V36.875H40.875V77.125H57.0918Z" fill="#B80006"/>
<circle cx="57.4981" cy="56.7433" r="47.9474" stroke="#D9D9D9" stroke-width="7"/>
<path d="M113 57.1217C113 87.5522 88.1643 112.243 57.5 112.243C26.8357 112.243 2 87.5522 2 57.1217C2 26.6913 26.8357 2 57.5 2C88.1643 2 113 26.6913 113 57.1217Z" stroke="#B8B8B8" stroke-width="4"/>
</svg>
