<svg width="115" height="115" viewBox="0 0 115 115" fill="none" xmlns="http://www.w3.org/2000/svg">
<path d="M57.4995 29C48.9641 29 41.7652 29.4774 40.6913 30.1115C38.8153 30.7598 37.4037 35.075 37.399 40.1953V42.7388H36.8878C36.8355 42.622 36.7659 42.5139 36.6815 42.4182C36.9029 42.16 37.0245 41.8293 37.0238 41.4872V40.1953C37.0537 39.893 36.9657 39.591 36.7786 39.3536C36.5915 39.1162 36.3202 38.9623 36.0226 38.9247H34.0107C33.7113 38.9628 33.4387 39.1182 33.2511 39.3574C33.0635 39.5967 32.9759 39.9009 33.007 40.2048V40.2V41.492C33.007 41.8482 33.136 42.176 33.3494 42.4253L33.347 42.4229C33.1256 42.6812 33.004 43.0119 33.0047 43.3539V49.7329C33 49.7685 33 49.8065 33 49.8469C33 50.4406 33.4385 50.9322 34.006 51.0035H36.0202C36.2089 50.9936 36.3907 50.9291 36.5441 50.8175C36.6975 50.7059 36.816 50.552 36.8855 50.3741L36.8878 50.367H37.399V61.8188C37.399 62.2724 37.8797 62.6927 38.6559 62.9183V64.405C37.5468 64.5499 36.78 65.0557 36.78 65.6352V78.3647C36.7011 79.9422 37.1488 81.5007 38.0509 82.7891L38.0368 82.7678V84.955C38.0368 85.5321 38.4988 86 39.0686 86H43.2847C43.5584 86 43.8208 85.8899 44.0143 85.6939C44.2078 85.498 44.3165 85.2322 44.3165 84.955V83.4565H70.6895V84.955C70.6895 85.5321 71.1515 86 71.7213 86H75.9374C76.0729 86 76.2071 85.973 76.3323 85.9205C76.4574 85.8679 76.5712 85.791 76.667 85.6939C76.7628 85.5969 76.8388 85.4817 76.8906 85.3549C76.9425 85.2282 76.9692 85.0923 76.9692 84.955V82.7701C77.8659 81.4824 78.3086 79.9264 78.226 78.3528V78.3694V65.64C78.226 65.0605 77.4499 64.5546 76.3501 64.4098V62.9231C77.1263 62.6975 77.6046 62.2771 77.607 61.8235V50.3765H78.1182C78.2589 50.7375 78.5918 50.9916 78.9834 51.013H80.9883C81.2877 50.9748 81.5603 50.8195 81.7479 50.5802C81.9355 50.341 82.0231 50.0368 81.9919 49.7329V49.7376V43.3587C81.9926 43.0159 81.871 42.6845 81.6496 42.4253L81.6519 42.4277C81.8734 42.1695 81.995 41.8387 81.9943 41.4967V40.2095C82.0241 39.9073 81.9361 39.6052 81.749 39.3678C81.5619 39.1304 81.2906 38.9765 80.993 38.939H78.9788C78.6794 38.9771 78.4068 39.1324 78.2192 39.3717C78.0316 39.611 77.944 39.9151 77.9751 40.219V40.2143V41.5062C77.9751 41.8625 78.1041 42.1902 78.3175 42.4396L78.3151 42.4372C78.2329 42.5305 78.1642 42.6353 78.1111 42.7483L78.1088 42.7554H77.5976V40.2C77.5976 35.0536 76.1719 30.7194 74.2819 30.1043C73.1329 29.4726 65.9693 29.0047 57.4995 29.0047V29ZM40.2692 36.3788H74.7275C75.3348 36.3788 75.8413 36.8158 75.9585 37.3977L75.9609 37.4048C76.2001 38.616 76.3361 40.01 76.3361 41.4374V41.5276V41.5229V50.3741C76.3361 51.0771 75.7733 51.6471 75.0792 51.6471H39.9128C39.5794 51.6471 39.2597 51.5129 39.024 51.2742C38.7883 51.0355 38.6559 50.7117 38.6559 50.3741V41.4397C38.6559 40.0124 38.7919 38.6184 39.0522 37.2694L39.0311 37.4048C39.0876 37.1156 39.2414 36.8552 39.4664 36.6681C39.6913 36.4809 39.9734 36.3787 40.2645 36.3788H40.2692ZM41.7957 64.3694H44.4877C44.823 64.3694 45.095 64.6354 45.1137 64.9703V64.9726L45.5616 73.242V73.2753C45.5616 73.6268 45.2802 73.9118 44.9332 73.9118H41.7957C41.629 73.9118 41.4692 73.8447 41.3513 73.7253C41.2335 73.606 41.1673 73.4441 41.1673 73.2753V65.0059C41.1673 64.6544 41.4487 64.3694 41.7957 64.3694ZM70.509 64.3694H73.2009C73.548 64.3694 73.8294 64.6544 73.8294 65.0059V73.2682C73.8294 73.6196 73.548 73.9046 73.2009 73.9046H70.0611C69.8944 73.9046 69.7346 73.8376 69.6167 73.7182C69.4989 73.5988 69.4327 73.437 69.4327 73.2682V73.2325L69.8805 64.9655C69.904 64.633 70.176 64.3718 70.5066 64.3718L70.509 64.3694ZM47.135 65.8893H67.8639C68.0375 65.8893 68.1782 66.0318 68.1782 66.2076V66.5876C68.1782 66.7633 68.0375 66.9058 67.8639 66.9058H47.135C47.0517 66.9058 46.9718 66.8723 46.9129 66.8126C46.8539 66.7529 46.8208 66.672 46.8208 66.5876V66.2076C46.8208 66.0318 46.9615 65.8893 47.135 65.8893ZM47.2593 68.1787H67.7373C67.9108 68.1787 68.0515 68.3212 68.0515 68.497V68.877C68.0515 69.0527 67.9108 69.1952 67.7373 69.1952H47.2593C47.176 69.1952 47.0961 69.1617 47.0371 69.102C46.9782 69.0423 46.9451 68.9614 46.9451 68.877V68.497C46.9451 68.3212 47.0858 68.1787 47.2593 68.1787ZM47.3859 70.4682H67.613C67.7866 70.4682 67.9272 70.6106 67.9272 70.7864V71.1664C67.9272 71.3421 67.7866 71.4846 67.613 71.4846H47.3859C47.3052 71.4847 47.2276 71.453 47.1695 71.3963C47.1113 71.3396 47.0771 71.2623 47.0741 71.1806V70.8006C47.0741 70.6249 47.2148 70.4824 47.3883 70.4824L47.3859 70.4682ZM47.5126 72.7575H67.4864C67.6599 72.7575 67.8006 72.9 67.8006 73.0758V73.4558C67.8006 73.6315 67.6599 73.774 67.4864 73.774H47.5126C47.4292 73.774 47.3493 73.7405 47.2904 73.6808C47.2315 73.6211 47.1984 73.5402 47.1984 73.4558V73.0758C47.1984 72.9 47.339 72.7575 47.5126 72.7575Z" fill="#B80006"/>
<circle cx="57.4981" cy="57.5001" r="47.9474" stroke="#D9D9D9" stroke-width="7"/>
<circle cx="57.5" cy="57.5" r="55.5" stroke="#B8B8B8" stroke-width="4"/>
</svg>
