<svg width="115" height="115" viewBox="0 0 115 115" fill="none" xmlns="http://www.w3.org/2000/svg">
<circle cx="57.4981" cy="56.7433" r="47.9474" stroke="#D9D9D9" stroke-width="7"/>
<path d="M113 57.1217C113 87.5522 88.1643 112.243 57.5 112.243C26.8357 112.243 2 87.5522 2 57.1217C2 26.6913 26.8357 2 57.5 2C88.1643 2 113 26.6913 113 57.1217Z" stroke="#B8B8B8" stroke-width="4"/>
<path d="M73.6562 70.1832C74.054 70.1832 74.3983 70.3286 74.689 70.6194C74.9797 70.9103 75.125 71.2547 75.125 71.6527C75.125 72.0506 74.9797 72.3951 74.689 72.6859C74.3983 72.9767 74.054 73.1221 73.6562 73.1221H56.0312C55.6335 73.1221 55.2892 72.9767 54.9985 72.6859C54.7078 72.3951 54.5625 72.0506 54.5625 71.6527C54.5625 71.2547 54.7078 70.9103 54.9985 70.6194C55.2892 70.3286 55.6335 70.1832 56.0312 70.1832H73.6562ZM70.7188 76.0611C71.1165 76.0611 71.4608 76.2065 71.7515 76.4973C72.0422 76.7881 72.1875 77.1326 72.1875 77.5305C72.1875 77.9285 72.0422 78.2729 71.7515 78.5638C71.4608 78.8546 71.1165 79 70.7188 79H58.9688C58.571 79 58.2267 78.8546 57.936 78.5638C57.6453 78.2729 57.5 77.9285 57.5 77.5305C57.5 77.1326 57.6453 76.7881 57.936 76.4973C58.2267 76.2065 58.571 76.0611 58.9688 76.0611H70.7188ZM76.1807 64.3053H81V67.2443H46.3237C46.1707 68.2239 46.0636 69.2035 46.0024 70.1832C45.9412 71.1628 45.8877 72.1348 45.8418 73.0992C45.7959 74.0635 45.7729 75.0432 45.7729 76.0381C45.7729 77.0331 45.7653 78.0204 45.75 79H36.9375V74.5686C36.9375 73.3288 36.9834 72.1042 37.0752 70.895C37.167 69.6857 37.297 68.4688 37.4653 67.2443H34V64.3053H37.9473C38.7122 60.5551 39.8674 56.9503 41.4126 53.491C42.9578 50.0316 44.8703 46.7636 47.1499 43.6869C44.9162 43.6103 42.866 43.1435 40.9995 42.2863C39.133 41.4291 37.4271 40.2045 35.8818 38.6126L34.8491 37.5564L35.9277 36.5462C37.5189 35.0614 39.263 33.9363 41.1602 33.171C43.0573 32.4056 45.0998 32.0153 47.2876 32C49.6743 32 51.8621 32.4439 53.8511 33.3317C55.84 34.2195 57.6683 35.5053 59.3359 37.1891C60.514 37.2197 61.6538 37.4034 62.7554 37.7401C63.8569 38.0769 64.882 38.5361 65.8306 39.1177C66.7791 39.6994 67.6436 40.3882 68.4238 41.1842C69.2041 41.9801 69.8696 42.8603 70.4204 43.8246C70.9712 44.789 71.4072 45.8222 71.7285 46.9243C72.0498 48.0264 72.2028 49.1744 72.1875 50.3683V51.8378H70.7188C68.6992 51.8378 66.8097 51.4092 65.0503 50.552C63.2909 49.6948 61.7686 48.4779 60.4834 46.9013C59.3206 49.0137 57.8595 50.751 56.1001 52.1133C54.3407 53.4757 52.2829 54.4323 49.9268 54.9834C49.2689 56.4988 48.6875 58.0295 48.1826 59.5755C47.6777 61.1215 47.2417 62.6981 46.8745 64.3053H53.5068C53.8434 63.0195 54.3713 61.8409 55.0903 60.7694C55.8094 59.6979 56.6662 58.7642 57.6606 57.9682C58.6551 57.1723 59.772 56.5677 61.0112 56.1544C62.2505 55.7411 63.528 55.5191 64.8438 55.4885C66.1748 55.4885 67.4523 55.7028 68.6763 56.1314C69.9002 56.56 71.0094 57.1723 72.0039 57.9682C72.9984 58.7642 73.8628 59.6903 74.5972 60.7465C75.3315 61.8026 75.8594 62.9889 76.1807 64.3053ZM62.4111 40.702C62.3193 41.697 62.1204 42.7072 61.8145 43.7328C62.5947 45.0798 63.6198 46.1972 64.8896 47.085C66.1595 47.9728 67.5747 48.5392 69.1353 48.7841C68.9823 47.8504 68.7145 46.9702 68.332 46.1436C67.9495 45.317 67.4676 44.544 66.8862 43.8246C66.3049 43.1052 65.6317 42.4929 64.8667 41.9878C64.1017 41.4827 63.2832 41.0541 62.4111 40.702ZM59.5195 40.8627C57.959 40.9852 56.4902 41.3679 55.1133 42.0107C53.7363 42.6536 52.5047 43.4955 51.4185 44.5364C50.3322 45.5773 49.4372 46.7789 48.7334 48.1412C48.0296 49.5035 47.563 50.95 47.3335 52.4807C48.634 52.3736 49.8656 52.098 51.0283 51.6541C52.1911 51.2102 53.2544 50.6133 54.2183 49.8632C55.1821 49.1132 56.0389 48.256 56.7886 47.2916C57.5382 46.3273 58.1579 45.2252 58.6475 43.9853C58.8617 43.4802 59.0376 42.9674 59.1753 42.447C59.313 41.9266 59.4277 41.3985 59.5195 40.8627ZM39.1406 37.6483C40.3646 38.6585 41.7186 39.4315 43.2026 39.9673C44.6867 40.503 46.2243 40.7709 47.8154 40.7709C49.2995 40.7709 50.73 40.5413 52.1069 40.0821C53.4839 39.6229 54.769 38.9494 55.9624 38.0616C54.7384 37.0513 53.3844 36.2783 51.9004 35.7426C50.4163 35.2068 48.8787 34.9389 47.2876 34.9389C45.8035 34.9389 44.373 35.1685 42.9961 35.6277C41.6191 36.087 40.334 36.7605 39.1406 37.6483ZM46.4385 55.4426C46.3161 55.4732 46.1937 55.4885 46.0713 55.4885C45.9489 55.4885 45.8265 55.4885 45.7041 55.4885H44.9697C44.7249 55.4885 44.4801 55.4732 44.2354 55.4426V54.3635C43.4245 56.1697 42.7437 57.9453 42.1929 59.6903C41.6421 61.4353 41.1908 63.1956 40.8389 64.9712C40.487 66.7468 40.2422 68.5454 40.1045 70.3669C39.9668 72.1884 39.8903 74.0865 39.875 76.0611H42.8125C42.8125 74.2089 42.8737 72.418 42.9961 70.6883C43.1185 68.9586 43.325 67.2519 43.6157 65.5681C43.9064 63.8844 44.2812 62.2083 44.7402 60.5398C45.1992 58.8714 45.7653 57.1723 46.4385 55.4426ZM56.582 64.3053H73.1055C72.7995 63.4328 72.3711 62.6369 71.8203 61.9174C71.2695 61.198 70.6346 60.5781 69.9155 60.0576C69.1965 59.5372 68.4009 59.1392 67.5288 58.8637C66.6567 58.5882 65.7617 58.4428 64.8438 58.4275C63.9105 58.4275 63.0155 58.5652 62.1587 58.8407C61.3019 59.1163 60.514 59.5142 59.7949 60.0347C59.0758 60.5551 58.4333 61.1751 57.8672 61.8945C57.3011 62.6139 56.8727 63.4175 56.582 64.3053Z" fill="#B80006"/>
</svg>
