<svg width="115" height="115" viewBox="0 0 115 115" fill="none" xmlns="http://www.w3.org/2000/svg">
<path fill-rule="evenodd" clip-rule="evenodd" d="M46.47 32.5687C46.2902 33.0331 46.2168 38.0677 46.3069 43.7567L46.4712 54.1002L50.651 54.5521C52.9499 54.8008 56.0848 55.4144 57.6171 55.916C60.1411 56.7416 60.7137 56.738 63.7035 55.8757C65.5188 55.3522 68.6985 54.7386 70.7699 54.5124L74.536 54.1002V43.1438V32.1873L70.3561 32.307C68.0572 32.3733 64.8996 32.8133 63.3399 33.2853C60.8839 34.0292 60.1274 34.0322 57.6995 33.3073C53.2031 31.9652 46.8653 31.5483 46.47 32.5687ZM57.0701 35.569L59.3093 36.2246V43.8929C59.3093 50.86 59.2168 51.5263 58.2966 51.1763C57.7401 50.9643 55.3217 50.4887 52.9225 50.1186L48.5611 49.4458V41.7769V34.1074L51.696 34.5107C53.4205 34.7322 55.8388 35.2083 57.0701 35.569ZM72.446 41.8533V49.4458L68.0846 50.1186C65.6854 50.4887 63.267 50.9643 62.7105 51.1763C61.7904 51.5263 61.6978 50.8589 61.6978 43.8764V36.1909L64.2356 35.5406C67.9025 34.6019 68.9642 34.4059 70.8039 34.3289L72.446 34.2602V41.8533ZM38.41 56.7801C36.2753 58.0676 34.1931 59.5749 33.7823 60.1292C32.7982 61.4582 32.7146 81.9651 33.6909 82.5632C34.0516 82.7841 36.5141 81.8964 39.1642 80.5905L43.9817 78.2156L51.7951 81.1039C56.092 82.6923 60.113 83.9958 60.7305 84C62.3158 84.0118 80.6887 73.4871 81.4071 72.1558C81.7331 71.5517 82 69.8277 82 68.3258C82 64.8008 79.6004 63.0721 76.6833 63.3273C73.9379 63.5674 74.5351 62.9752 73.3408 62.0868C72.3279 61.3333 70.4004 61.7031 69.5178 61.7884C68.6353 61.8737 68.5749 61.4143 67.8577 61.0258C65.9684 60.0019 64.3186 60.1511 61.816 61.5737L59.6079 62.8286L52.3391 58.6125C48.3413 56.2938 44.4451 54.4058 43.6808 54.417C42.9165 54.4289 40.5447 55.492 38.41 56.7801ZM52.1325 61.168C60.1435 65.8478 61.1914 66.8025 60.1381 68.462C59.0484 70.1783 57.761 69.9876 53.4055 67.4647C49.037 64.934 47.3668 64.5005 47.3668 65.8964C47.3668 66.6414 59.2908 73.9402 60.5083 73.9402C60.774 73.9402 64.527 71.9254 68.8484 69.4623C73.1697 66.9998 77.1287 65.0679 77.6464 65.1685C78.9003 65.4137 79.8862 67.046 79.4545 68.1623C79.1559 68.934 64.0672 78.0409 61.4148 79.05C60.9012 79.2455 56.7363 78.0332 52.1588 76.3565L43.8366 73.3071L39.6305 75.4078L35.4244 77.5085V69.4907L35.7804 61.5737L39.1564 59.1247C41.2093 57.8331 43.2915 56.7848 43.7841 56.7955C44.2767 56.8055 48.0332 58.773 52.1325 61.168ZM66.4748 63.1845C66.4748 63.6056 65.637 64.1327 62.7428 65.531C61.7862 65.9935 62.354 63.897 63.3399 63.3273C64.6159 62.5899 66.4748 62.5058 66.4748 63.1845ZM72.4412 64.3163C72.4359 64.7824 62.7308 70.4247 62.4364 70.1327C61.8172 69.518 63.4492 67.9497 66.6426 66.0907C70.168 64.0392 72.452 63.3403 72.4412 64.3163Z" fill="#B80006"/>
<circle cx="57.4981" cy="57.5001" r="47.9474" stroke="#D9D9D9" stroke-width="7"/>
<circle cx="57.5" cy="57.5" r="55.5" stroke="#B8B8B8" stroke-width="4"/>
</svg>
