<svg width="115" height="115" viewBox="0 0 115 115" fill="none" xmlns="http://www.w3.org/2000/svg">
<path fill-rule="evenodd" clip-rule="evenodd" d="M47.0393 32.3841C47.0393 32.3841 46.1166 32.3841 41.5863 32.3841C31.9906 32.3843 34.3525 32.9684 34.0571 58.6686C34.0571 81.8382 33.7615 83.2011 34.9431 84.0773C35.8269 84.9534 37.2042 84.9532 56.4814 84.9532C75.7586 84.9532 76.2499 85.2455 77.7252 84.3693C79.4955 82.9091 78.9057 81.8382 78.9057 58.6686C78.9057 32.3841 80.3239 32.3841 71.3764 32.3841C66.8461 32.3841 65.9229 32.3841 65.9229 32.3841C65.3328 29.7556 64.0938 30.0477 56.4814 30.0477C48.8689 30.0477 47.6294 29.4636 47.0393 32.3841ZM63.6277 35.1586V37.933H56.4814H49.3351V35.1586V32.3841H56.4814H63.6277V35.1586ZM47.0393 38.2251C47.6294 41.4379 48.2195 40.5615 56.4814 40.5615C63.8575 40.5615 64.4476 41.4379 64.8766 38.2251C64.8766 38.2251 66.7098 38.2251 68.8738 38.2251H71.8243V58.0845V77.944H56.4814H41.1385V58.0845V38.2251H44.089C46.253 38.2251 47.0393 38.2251 47.0393 38.2251ZM54.4567 46.0088C53.3768 46.7904 53.3662 48.8265 54.4201 52.8854C54.7594 54.1903 54.5169 54.5776 52.6976 55.6407C49.3038 57.6225 50.0191 58.0845 56.4814 58.0845C62.9437 58.0845 63.6589 57.6225 60.2652 55.6407C58.4659 54.5899 58.2022 54.1763 58.5067 52.8854C59.645 48.066 59.6665 46.7997 58.2514 45.8184C57.3662 45.2046 55.6961 45.1119 54.4567 46.0088ZM47.0396 65.0938H65.9229V62.7573H47.0396V65.0938ZM47.0396 69.7666C47.0396 70.8746 47.4332 70.9348 54.711 70.9348C61.9889 70.9348 62.3825 70.8746 62.3825 69.7666C62.3825 68.6585 61.9889 68.5984 54.711 68.5984C47.4332 68.5984 47.0396 68.6585 47.0396 69.7666Z" fill="#B80006"/>
<circle cx="57.4981" cy="57.5001" r="47.9474" stroke="#D9D9D9" stroke-width="7"/>
<circle cx="57.5" cy="57.5" r="55.5" stroke="#B8B8B8" stroke-width="4"/>
</svg>
