<svg width="115" height="115" viewBox="0 0 115 115" fill="none" xmlns="http://www.w3.org/2000/svg">
<circle cx="57.4981" cy="57.5001" r="47.9474" stroke="#D9D9D9" stroke-width="7"/>
<circle cx="57.5" cy="57.5" r="55.5" stroke="#B8B8B8" stroke-width="4"/>
<path fill-rule="evenodd" clip-rule="evenodd" d="M53.3774 27.9873C46.7388 29.6539 42.4783 31.9334 38.4683 35.9655C34.6519 39.803 32.2227 44.2136 30.7442 49.9907C29.0216 56.7219 30.3979 69.9832 33.7549 79.0054C35.3938 83.4102 36.8997 84.2743 44.0604 84.9174C46.8046 85.1635 49.7878 85.8863 51.2887 86.6681C53.1065 87.6152 55.0438 88 57.9976 88C60.9514 88 62.8887 87.6152 64.7065 86.6681C66.2074 85.8863 69.1906 85.1635 71.9349 84.9174C79.0955 84.2743 80.6015 83.4102 82.2404 79.0054C84.154 73.8624 85.4561 67.2443 85.9066 60.3731C86.6203 49.4889 83.2352 40.3395 76.0477 33.7272C69.105 27.3397 62.5603 25.6828 53.3774 27.9873ZM59.5592 51.6097C57.4309 53.629 53.8828 56.3422 51.6746 57.6387C48.4141 59.5526 47.9285 60.0358 49.0895 60.2086C51.051 60.5003 52.1353 62.3275 51.2172 63.7942C50.0179 65.7088 48.3023 65.5372 46.5056 63.3233C44.861 61.2976 44.7926 61.2777 41.9921 62.0306C40.4286 62.4515 38.7897 63.092 38.3501 63.4537C36.3982 65.0625 38.6076 72.0333 41.2931 72.7394C41.9103 72.9013 43.339 74.5871 44.468 76.4856C50.5111 86.6444 60.7955 88.7594 67.8999 81.3035L69.7375 79.3742H67.5095C66.2841 79.3742 64.9742 79.6832 64.5992 80.0603C64.2235 80.4381 62.8293 80.6546 61.5009 80.5422C56.8022 80.1445 56.8022 76.034 61.5009 75.6363C62.8293 75.5238 64.2235 75.7403 64.5992 76.1181C64.9742 76.4952 66.6457 76.8043 68.3121 76.8043C70.986 76.8043 71.4735 76.5826 72.4486 74.9225C73.0568 73.8875 74.0645 72.9064 74.6887 72.7426C76.4784 72.2723 78.4968 68.4399 78.2981 65.888C78.1454 63.9169 77.7684 63.4749 75.1922 62.2491C71.5336 60.5073 67.5677 56.0447 65.5838 51.4369C64.75 49.4999 63.9238 47.92 63.7481 47.9264C63.5724 47.9329 61.6875 49.5898 59.5592 51.6097ZM65.1538 60.871C63.5564 62.4771 64.7416 65.2398 67.0271 65.2398C68.3261 65.2398 71.0391 61.6895 70.4595 60.747C69.9062 59.8462 66.0841 59.9355 65.1538 60.871Z" fill="#B80006"/>
</svg>
