<svg width="1242" height="924" viewBox="0 0 1242 924" fill="none" xmlns="http://www.w3.org/2000/svg">
<path d="M101 0H1241.5L957 924H101V0Z" fill="#B01F24"/>
<path d="M101 0H1241.5L957 924H101V0Z" fill="url(#paint0_linear_1843_417)" fill-opacity="0.2"/>
<path d="M164 274.443V174H1242L1118.74 572.503L1032 843H859.805H382.184V572.503H164V274.443Z" fill="#26252A"/>
<circle cx="164" cy="620" r="164" fill="white"/>
<path d="M327.96 260H298.291V281.576H310.414V295.961C310.601 303.354 307.15 304.541 298.291 304.404V318.163C298.291 318.163 304.497 320.047 310.414 318.163C316.33 316.279 328.796 307.883 327.96 295.961V260Z" fill="white" fill-opacity="0.85"/>
<path d="M327.96 260H298.291V281.576H310.414V295.961C310.601 303.354 307.15 304.541 298.291 304.404V318.163C298.291 318.163 304.497 320.047 310.414 318.163C316.33 316.279 328.796 307.883 327.96 295.961V260Z" fill="white" fill-opacity="0.85"/>
<path d="M284.671 260H255.002V281.576H267.125V295.961C267.312 303.354 263.861 304.541 255.002 304.404V318.163C255.002 318.163 261.208 320.047 267.125 318.163C273.041 316.279 285.507 307.883 284.671 295.961V260Z" fill="white" fill-opacity="0.85"/>
<path d="M284.671 260H255.002V281.576H267.125V295.961C267.312 303.354 263.861 304.541 255.002 304.404V318.163C255.002 318.163 261.208 320.047 267.125 318.163C273.041 316.279 285.507 307.883 284.671 295.961V260Z" fill="white" fill-opacity="0.85"/>
<path d="M951.96 470H922.291V491.576H934.414V505.961C934.601 513.354 931.15 514.541 922.291 514.404V528.163C922.291 528.163 928.497 530.047 934.414 528.163C940.33 526.279 952.796 517.883 951.96 505.961V470Z" fill="white" fill-opacity="0.85"/>
<path d="M951.96 470H922.291V491.576H934.414V505.961C934.601 513.354 931.15 514.541 922.291 514.404V528.163C922.291 528.163 928.497 530.047 934.414 528.163C940.33 526.279 952.796 517.883 951.96 505.961V470Z" fill="white" fill-opacity="0.85"/>
<path d="M908.671 470H879.002V491.576H891.125V505.961C891.312 513.354 887.861 514.541 879.002 514.404V528.163C879.002 528.163 885.208 530.047 891.125 528.163C897.041 526.279 909.507 517.883 908.671 505.961V470Z" fill="white" fill-opacity="0.85"/>
<path d="M908.671 470H879.002V491.576H891.125V505.961C891.312 513.354 887.861 514.541 879.002 514.404V528.163C879.002 528.163 885.208 530.047 891.125 528.163C897.041 526.279 909.507 517.883 908.671 505.961V470Z" fill="white" fill-opacity="0.85"/>
<defs>
<linearGradient id="paint0_linear_1843_417" x1="1040.5" y1="0" x2="1040.5" y2="924" gradientUnits="userSpaceOnUse">
<stop offset="0.215" stop-color="#A53232"/>
<stop offset="0.605"/>
</linearGradient>
</defs>
</svg>
