<svg width="1141" height="924" viewBox="0 0 1141 924" fill="none" xmlns="http://www.w3.org/2000/svg">
<path d="M0 0H1140.5L856 924H0V0Z" fill="#B01F24"/>
<path d="M0 0H1140.5L856 924H0V0Z" fill="url(#paint0_linear_1661_374)" fill-opacity="0.2"/>
<path d="M63 274.443V174H1141L1017.74 572.503L931 843H758.805H281.184V572.503H63V274.443Z" fill="#26252A"/>
<circle cx="63" cy="620" r="164" fill="white"/>
<path d="M212.864 365.768L214.664 361.592C215.744 362.24 216.896 362.744 218.12 363.104C219.368 363.44 220.58 363.632 221.756 363.68C222.956 363.704 224.036 363.584 224.996 363.32C225.98 363.056 226.76 362.66 227.336 362.132C227.936 361.604 228.236 360.932 228.236 360.116C228.236 359.156 227.84 358.448 227.048 357.992C226.256 357.512 225.2 357.272 223.88 357.272H217.724V352.88H223.448C224.624 352.88 225.536 352.64 226.184 352.16C226.856 351.68 227.192 351.02 227.192 350.18C227.192 349.46 226.952 348.884 226.472 348.452C225.992 347.996 225.332 347.66 224.492 347.444C223.676 347.228 222.752 347.132 221.72 347.156C220.688 347.18 219.62 347.348 218.516 347.66C217.412 347.972 216.356 348.404 215.348 348.956L213.584 344.456C215.216 343.616 216.932 343.04 218.732 342.728C220.556 342.392 222.308 342.308 223.988 342.476C225.692 342.62 227.228 343.004 228.596 343.628C229.964 344.228 231.056 345.02 231.872 346.004C232.688 346.988 233.096 348.152 233.096 349.496C233.096 350.696 232.784 351.764 232.16 352.7C231.536 353.636 230.66 354.356 229.532 354.86C228.428 355.364 227.156 355.616 225.716 355.616L225.86 354.32C227.54 354.32 228.992 354.608 230.216 355.184C231.464 355.736 232.424 356.516 233.096 357.524C233.792 358.508 234.14 359.648 234.14 360.944C234.14 362.144 233.816 363.224 233.168 364.184C232.544 365.12 231.68 365.912 230.576 366.56C229.472 367.208 228.212 367.688 226.796 368C225.38 368.312 223.868 368.444 222.26 368.396C220.676 368.348 219.08 368.12 217.472 367.712C215.864 367.28 214.328 366.632 212.864 365.768ZM249.917 368V364.22L249.557 363.392V356.624C249.557 355.424 249.185 354.488 248.441 353.816C247.721 353.144 246.605 352.808 245.093 352.808C244.061 352.808 243.041 352.976 242.033 353.312C241.049 353.624 240.209 354.056 239.513 354.608L237.497 350.684C238.553 349.94 239.825 349.364 241.313 348.956C242.801 348.548 244.313 348.344 245.849 348.344C248.801 348.344 251.093 349.04 252.725 350.432C254.357 351.824 255.173 353.996 255.173 356.948V368H249.917ZM244.013 368.288C242.501 368.288 241.205 368.036 240.125 367.532C239.045 367.004 238.217 366.296 237.641 365.408C237.065 364.52 236.777 363.524 236.777 362.42C236.777 361.268 237.053 360.26 237.605 359.396C238.181 358.532 239.081 357.86 240.305 357.38C241.529 356.876 243.125 356.624 245.093 356.624H250.241V359.9H245.705C244.385 359.9 243.473 360.116 242.969 360.548C242.489 360.98 242.249 361.52 242.249 362.168C242.249 362.888 242.525 363.464 243.077 363.896C243.653 364.304 244.433 364.508 245.417 364.508C246.353 364.508 247.193 364.292 247.937 363.86C248.681 363.404 249.221 362.744 249.557 361.88L250.421 364.472C250.013 365.72 249.269 366.668 248.189 367.316C247.109 367.964 245.717 368.288 244.013 368.288ZM271.464 368.288C269.832 368.288 268.404 367.928 267.18 367.208C265.956 366.488 264.996 365.396 264.3 363.932C263.628 362.444 263.292 360.572 263.292 358.316C263.292 356.036 263.616 354.164 264.264 352.7C264.912 351.236 265.848 350.144 267.072 349.424C268.296 348.704 269.76 348.344 271.464 348.344C273.288 348.344 274.92 348.764 276.36 349.604C277.824 350.42 278.976 351.572 279.816 353.06C280.68 354.548 281.112 356.3 281.112 358.316C281.112 360.356 280.68 362.12 279.816 363.608C278.976 365.096 277.824 366.248 276.36 367.064C274.92 367.88 273.288 368.288 271.464 368.288ZM260.016 374.984V348.632H265.38V352.592L265.272 358.352L265.632 364.076V374.984H260.016ZM270.492 363.68C271.428 363.68 272.256 363.464 272.976 363.032C273.72 362.6 274.308 361.988 274.74 361.196C275.196 360.38 275.424 359.42 275.424 358.316C275.424 357.188 275.196 356.228 274.74 355.436C274.308 354.644 273.72 354.032 272.976 353.6C272.256 353.168 271.428 352.952 270.492 352.952C269.556 352.952 268.716 353.168 267.972 353.6C267.228 354.032 266.64 354.644 266.208 355.436C265.776 356.228 265.56 357.188 265.56 358.316C265.56 359.42 265.776 360.38 266.208 361.196C266.64 361.988 267.228 362.6 267.972 363.032C268.716 363.464 269.556 363.68 270.492 363.68ZM296.323 368V364.22L295.963 363.392V356.624C295.963 355.424 295.591 354.488 294.847 353.816C294.127 353.144 293.011 352.808 291.499 352.808C290.467 352.808 289.447 352.976 288.439 353.312C287.455 353.624 286.615 354.056 285.919 354.608L283.903 350.684C284.959 349.94 286.231 349.364 287.719 348.956C289.207 348.548 290.719 348.344 292.255 348.344C295.207 348.344 297.499 349.04 299.131 350.432C300.763 351.824 301.579 353.996 301.579 356.948V368H296.323ZM290.419 368.288C288.907 368.288 287.611 368.036 286.531 367.532C285.451 367.004 284.623 366.296 284.047 365.408C283.471 364.52 283.183 363.524 283.183 362.42C283.183 361.268 283.459 360.26 284.011 359.396C284.587 358.532 285.487 357.86 286.711 357.38C287.935 356.876 289.531 356.624 291.499 356.624H296.647V359.9H292.111C290.791 359.9 289.879 360.116 289.375 360.548C288.895 360.98 288.655 361.52 288.655 362.168C288.655 362.888 288.931 363.464 289.483 363.896C290.059 364.304 290.839 364.508 291.823 364.508C292.759 364.508 293.599 364.292 294.343 363.86C295.087 363.404 295.627 362.744 295.963 361.88L296.827 364.472C296.419 365.72 295.675 366.668 294.595 367.316C293.515 367.964 292.123 368.288 290.419 368.288ZM316.07 368.432C314.486 368.432 313.046 368.204 311.75 367.748C310.454 367.268 309.326 366.536 308.366 365.552C307.43 364.544 306.698 363.26 306.17 361.7C305.666 360.14 305.414 358.28 305.414 356.12C305.414 354.584 305.546 353.18 305.81 351.908C306.074 350.636 306.47 349.484 306.998 348.452C307.526 347.396 308.198 346.472 309.014 345.68C309.854 344.864 310.826 344.192 311.93 343.664C313.058 343.112 314.33 342.692 315.746 342.404L324.962 340.568L325.718 345.392L317.582 347.012C317.102 347.108 316.55 347.24 315.926 347.408C315.326 347.552 314.714 347.78 314.09 348.092C313.49 348.404 312.926 348.848 312.398 349.424C311.894 349.976 311.486 350.708 311.174 351.62C310.862 352.508 310.706 353.612 310.706 354.932C310.706 355.34 310.718 355.652 310.742 355.868C310.79 356.084 310.826 356.312 310.85 356.552C310.898 356.792 310.922 357.164 310.922 357.668L309.122 355.904C309.65 354.776 310.322 353.816 311.138 353.024C311.978 352.232 312.938 351.632 314.018 351.224C315.122 350.792 316.346 350.576 317.69 350.576C319.514 350.576 321.11 350.948 322.478 351.692C323.87 352.412 324.95 353.432 325.718 354.752C326.486 356.072 326.87 357.572 326.87 359.252C326.87 361.076 326.414 362.684 325.502 364.076C324.59 365.444 323.318 366.512 321.686 367.28C320.078 368.048 318.206 368.432 316.07 368.432ZM316.358 364.076C317.294 364.076 318.122 363.872 318.842 363.464C319.562 363.032 320.114 362.468 320.498 361.772C320.906 361.052 321.11 360.248 321.11 359.36C321.11 358.496 320.906 357.728 320.498 357.056C320.114 356.384 319.562 355.856 318.842 355.472C318.122 355.088 317.282 354.896 316.322 354.896C315.386 354.896 314.546 355.088 313.802 355.472C313.058 355.832 312.482 356.336 312.074 356.984C311.666 357.632 311.462 358.388 311.462 359.252C311.462 360.14 311.666 360.956 312.074 361.7C312.506 362.42 313.082 362.996 313.802 363.428C314.546 363.86 315.398 364.076 316.358 364.076ZM341.956 368V364.22L341.596 363.392V356.624C341.596 355.424 341.224 354.488 340.48 353.816C339.76 353.144 338.644 352.808 337.132 352.808C336.1 352.808 335.08 352.976 334.072 353.312C333.088 353.624 332.248 354.056 331.552 354.608L329.536 350.684C330.592 349.94 331.864 349.364 333.352 348.956C334.84 348.548 336.352 348.344 337.888 348.344C340.84 348.344 343.132 349.04 344.764 350.432C346.396 351.824 347.212 353.996 347.212 356.948V368H341.956ZM336.052 368.288C334.54 368.288 333.244 368.036 332.164 367.532C331.084 367.004 330.256 366.296 329.68 365.408C329.104 364.52 328.816 363.524 328.816 362.42C328.816 361.268 329.092 360.26 329.644 359.396C330.22 358.532 331.12 357.86 332.344 357.38C333.568 356.876 335.164 356.624 337.132 356.624H342.28V359.9H337.744C336.424 359.9 335.512 360.116 335.008 360.548C334.528 360.98 334.288 361.52 334.288 362.168C334.288 362.888 334.564 363.464 335.116 363.896C335.692 364.304 336.472 364.508 337.456 364.508C338.392 364.508 339.232 364.292 339.976 363.86C340.72 363.404 341.26 362.744 341.596 361.88L342.46 364.472C342.052 365.72 341.308 366.668 340.228 367.316C339.148 367.964 337.756 368.288 336.052 368.288ZM356.231 368V351.944L357.491 353.24H349.679V348.632H368.363V353.24H360.551L361.811 351.944V368H356.231ZM391.3 368V348.632H396.88V368H391.3ZM381.544 354.824C384.088 354.848 385.996 355.424 387.268 356.552C388.564 357.656 389.212 359.228 389.212 361.268C389.212 363.404 388.48 365.072 387.016 366.272C385.552 367.448 383.476 368.036 380.788 368.036L371.356 368V348.632H376.936V354.824H381.544ZM380.284 364.04C381.364 364.064 382.192 363.836 382.768 363.356C383.344 362.876 383.632 362.156 383.632 361.196C383.632 360.236 383.344 359.552 382.768 359.144C382.192 358.712 381.364 358.484 380.284 358.46L376.936 358.424V364.04H380.284ZM402.294 368V348.632H412.194C414.618 348.632 416.514 349.076 417.882 349.964C419.25 350.828 419.934 352.052 419.934 353.636C419.934 355.22 419.286 356.468 417.99 357.38C416.718 358.268 415.026 358.712 412.914 358.712L413.49 357.416C415.842 357.416 417.594 357.848 418.746 358.712C419.922 359.576 420.51 360.836 420.51 362.492C420.51 364.196 419.862 365.54 418.566 366.524C417.27 367.508 415.29 368 412.626 368H402.294ZM407.442 364.184H412.158C413.19 364.184 413.958 364.016 414.462 363.68C414.99 363.32 415.254 362.78 415.254 362.06C415.254 361.316 415.014 360.776 414.534 360.44C414.054 360.08 413.298 359.9 412.266 359.9H407.442V364.184ZM407.442 356.588H411.69C412.674 356.588 413.406 356.408 413.886 356.048C414.39 355.688 414.642 355.172 414.642 354.5C414.642 353.804 414.39 353.288 413.886 352.952C413.406 352.616 412.674 352.448 411.69 352.448H407.442V356.588ZM436.28 368V364.22L435.92 363.392V356.624C435.92 355.424 435.548 354.488 434.804 353.816C434.084 353.144 432.968 352.808 431.456 352.808C430.424 352.808 429.404 352.976 428.396 353.312C427.412 353.624 426.572 354.056 425.876 354.608L423.86 350.684C424.916 349.94 426.188 349.364 427.676 348.956C429.164 348.548 430.676 348.344 432.212 348.344C435.164 348.344 437.456 349.04 439.088 350.432C440.72 351.824 441.536 353.996 441.536 356.948V368H436.28ZM430.376 368.288C428.864 368.288 427.568 368.036 426.488 367.532C425.408 367.004 424.58 366.296 424.004 365.408C423.428 364.52 423.14 363.524 423.14 362.42C423.14 361.268 423.416 360.26 423.968 359.396C424.544 358.532 425.444 357.86 426.668 357.38C427.892 356.876 429.488 356.624 431.456 356.624H436.604V359.9H432.068C430.748 359.9 429.836 360.116 429.332 360.548C428.852 360.98 428.612 361.52 428.612 362.168C428.612 362.888 428.888 363.464 429.44 363.896C430.016 364.304 430.796 364.508 431.78 364.508C432.716 364.508 433.556 364.292 434.3 363.86C435.044 363.404 435.584 362.744 435.92 361.88L436.784 364.472C436.376 365.72 435.632 366.668 434.552 367.316C433.472 367.964 432.08 368.288 430.376 368.288ZM446.415 368V348.632H451.995V360.152L461.427 348.632H466.575V368H460.995V356.48L451.599 368H446.415ZM456.135 346.544C454.023 346.544 452.439 346.088 451.383 345.176C450.327 344.24 449.787 342.836 449.763 340.964H453.435C453.459 341.78 453.687 342.428 454.119 342.908C454.551 343.388 455.211 343.628 456.099 343.628C456.963 343.628 457.623 343.388 458.079 342.908C458.559 342.428 458.799 341.78 458.799 340.964H462.543C462.543 342.836 462.003 344.24 460.923 345.176C459.843 346.088 458.247 346.544 456.135 346.544ZM476.113 368V351.944L477.373 353.24H469.561V348.632H488.245V353.24H480.433L481.693 351.944V368H476.113ZM499.898 368.288C497.69 368.288 495.746 367.856 494.066 366.992C492.41 366.128 491.126 364.952 490.214 363.464C489.302 361.952 488.846 360.236 488.846 358.316C488.846 356.372 489.29 354.656 490.178 353.168C491.09 351.656 492.326 350.48 493.886 349.64C495.446 348.776 497.21 348.344 499.178 348.344C501.074 348.344 502.778 348.752 504.29 349.568C505.826 350.36 507.038 351.512 507.926 353.024C508.814 354.512 509.258 356.3 509.258 358.388C509.258 358.604 509.246 358.856 509.222 359.144C509.198 359.408 509.174 359.66 509.15 359.9H493.418V356.624H506.198L504.038 357.596C504.038 356.588 503.834 355.712 503.426 354.968C503.018 354.224 502.454 353.648 501.734 353.24C501.014 352.808 500.174 352.592 499.214 352.592C498.254 352.592 497.402 352.808 496.658 353.24C495.938 353.648 495.374 354.236 494.966 355.004C494.558 355.748 494.354 356.636 494.354 357.668V358.532C494.354 359.588 494.582 360.524 495.038 361.34C495.518 362.132 496.178 362.744 497.018 363.176C497.882 363.584 498.89 363.788 500.042 363.788C501.074 363.788 501.974 363.632 502.742 363.32C503.534 363.008 504.254 362.54 504.902 361.916L507.89 365.156C507.002 366.164 505.886 366.944 504.542 367.496C503.198 368.024 501.65 368.288 499.898 368.288ZM523.759 368V348.632H533.659C536.083 348.632 537.979 349.076 539.347 349.964C540.715 350.828 541.399 352.052 541.399 353.636C541.399 355.22 540.751 356.468 539.455 357.38C538.183 358.268 536.491 358.712 534.379 358.712L534.955 357.416C537.307 357.416 539.059 357.848 540.211 358.712C541.387 359.576 541.975 360.836 541.975 362.492C541.975 364.196 541.327 365.54 540.031 366.524C538.735 367.508 536.755 368 534.091 368H523.759ZM528.907 364.184H533.623C534.655 364.184 535.423 364.016 535.927 363.68C536.455 363.32 536.719 362.78 536.719 362.06C536.719 361.316 536.479 360.776 535.999 360.44C535.519 360.08 534.763 359.9 533.731 359.9H528.907V364.184ZM528.907 356.588H533.155C534.139 356.588 534.871 356.408 535.351 356.048C535.855 355.688 536.107 355.172 536.107 354.5C536.107 353.804 535.855 353.288 535.351 352.952C534.871 352.616 534.139 352.448 533.155 352.448H528.907V356.588ZM214.988 412V386.8H220.82V412H214.988ZM226.801 412V386.8H237.709C239.965 386.8 241.909 387.172 243.541 387.916C245.173 388.636 246.433 389.68 247.321 391.048C248.209 392.416 248.653 394.048 248.653 395.944C248.653 397.816 248.209 399.436 247.321 400.804C246.433 402.172 245.173 403.228 243.541 403.972C241.909 404.692 239.965 405.052 237.709 405.052H230.041L232.633 402.424V412H226.801ZM232.633 403.072L230.041 400.3H237.385C239.185 400.3 240.529 399.916 241.417 399.148C242.305 398.38 242.749 397.312 242.749 395.944C242.749 394.552 242.305 393.472 241.417 392.704C240.529 391.936 239.185 391.552 237.385 391.552H230.041L232.633 388.78V403.072ZM252.816 412V386.8H257.64L268.368 404.584H265.812L276.36 386.8H281.148L281.22 412H275.748L275.712 395.188H276.72L268.296 409.336H265.668L257.064 395.188H258.288V412H252.816ZM287.199 412V386.8H293.031V407.248H305.667V412H287.199ZM317.64 412.288C315.576 412.288 313.74 411.856 312.132 410.992C310.548 410.128 309.288 408.952 308.352 407.464C307.44 405.952 306.984 404.236 306.984 402.316C306.984 400.372 307.44 398.656 308.352 397.168C309.288 395.656 310.548 394.48 312.132 393.64C313.74 392.776 315.576 392.344 317.64 392.344C319.68 392.344 321.504 392.776 323.112 393.64C324.72 394.48 325.98 395.644 326.892 397.132C327.804 398.62 328.26 400.348 328.26 402.316C328.26 404.236 327.804 405.952 326.892 407.464C325.98 408.952 324.72 410.128 323.112 410.992C321.504 411.856 319.68 412.288 317.64 412.288ZM317.64 407.68C318.576 407.68 319.416 407.464 320.16 407.032C320.904 406.6 321.492 405.988 321.924 405.196C322.356 404.38 322.572 403.42 322.572 402.316C322.572 401.188 322.356 400.228 321.924 399.436C321.492 398.644 320.904 398.032 320.16 397.6C319.416 397.168 318.576 396.952 317.64 396.952C316.704 396.952 315.864 397.168 315.12 397.6C314.376 398.032 313.776 398.644 313.32 399.436C312.888 400.228 312.672 401.188 312.672 402.316C312.672 403.42 312.888 404.38 313.32 405.196C313.776 405.988 314.376 406.6 315.12 407.032C315.864 407.464 316.704 407.68 317.64 407.68ZM341.122 419.272C339.298 419.272 337.534 419.044 335.83 418.588C334.15 418.156 332.746 417.496 331.618 416.608L333.85 412.576C334.666 413.248 335.698 413.776 336.946 414.16C338.218 414.568 339.466 414.772 340.69 414.772C342.682 414.772 344.122 414.328 345.01 413.44C345.922 412.552 346.378 411.232 346.378 409.48V406.564L346.738 401.704L346.666 396.808V392.632H351.994V408.76C351.994 412.36 351.058 415.012 349.186 416.716C347.314 418.42 344.626 419.272 341.122 419.272ZM340.258 411.064C338.458 411.064 336.826 410.68 335.362 409.912C333.922 409.12 332.758 408.028 331.87 406.636C331.006 405.22 330.574 403.576 330.574 401.704C330.574 399.808 331.006 398.164 331.87 396.772C332.758 395.356 333.922 394.264 335.362 393.496C336.826 392.728 338.458 392.344 340.258 392.344C341.89 392.344 343.33 392.68 344.578 393.352C345.826 394 346.798 395.02 347.494 396.412C348.19 397.78 348.538 399.544 348.538 401.704C348.538 403.84 348.19 405.604 347.494 406.996C346.798 408.364 345.826 409.384 344.578 410.056C343.33 410.728 341.89 411.064 340.258 411.064ZM341.374 406.456C342.358 406.456 343.234 406.264 344.002 405.88C344.77 405.472 345.37 404.908 345.802 404.188C346.234 403.468 346.45 402.64 346.45 401.704C346.45 400.744 346.234 399.916 345.802 399.22C345.37 398.5 344.77 397.948 344.002 397.564C343.234 397.156 342.358 396.952 341.374 396.952C340.39 396.952 339.514 397.156 338.746 397.564C337.978 397.948 337.366 398.5 336.91 399.22C336.478 399.916 336.262 400.744 336.262 401.704C336.262 402.64 336.478 403.468 336.91 404.188C337.366 404.908 337.978 405.472 338.746 405.88C339.514 406.264 340.39 406.456 341.374 406.456ZM357.221 412V392.632H362.837V412H357.221ZM360.029 389.932C358.997 389.932 358.157 389.632 357.509 389.032C356.861 388.432 356.537 387.688 356.537 386.8C356.537 385.912 356.861 385.168 357.509 384.568C358.157 383.968 358.997 383.668 360.029 383.668C361.061 383.668 361.901 383.956 362.549 384.532C363.197 385.084 363.521 385.804 363.521 386.692C363.521 387.628 363.197 388.408 362.549 389.032C361.925 389.632 361.085 389.932 360.029 389.932ZM374.565 412.288C372.909 412.288 371.313 412.096 369.777 411.712C368.265 411.304 367.065 410.8 366.177 410.2L368.049 406.168C368.937 406.72 369.981 407.176 371.181 407.536C372.405 407.872 373.605 408.04 374.781 408.04C376.077 408.04 376.989 407.884 377.517 407.572C378.069 407.26 378.345 406.828 378.345 406.276C378.345 405.82 378.129 405.484 377.697 405.268C377.289 405.028 376.737 404.848 376.041 404.728C375.345 404.608 374.577 404.488 373.737 404.368C372.921 404.248 372.093 404.092 371.253 403.9C370.413 403.684 369.645 403.372 368.949 402.964C368.253 402.556 367.689 402.004 367.257 401.308C366.849 400.612 366.645 399.712 366.645 398.608C366.645 397.384 366.993 396.304 367.689 395.368C368.409 394.432 369.441 393.7 370.785 393.172C372.129 392.62 373.737 392.344 375.609 392.344C376.929 392.344 378.273 392.488 379.641 392.776C381.009 393.064 382.149 393.484 383.061 394.036L381.189 398.032C380.253 397.48 379.305 397.108 378.345 396.916C377.409 396.7 376.497 396.592 375.609 396.592C374.361 396.592 373.449 396.76 372.873 397.096C372.297 397.432 372.009 397.864 372.009 398.392C372.009 398.872 372.213 399.232 372.621 399.472C373.053 399.712 373.617 399.904 374.313 400.048C375.009 400.192 375.765 400.324 376.581 400.444C377.421 400.54 378.261 400.696 379.101 400.912C379.941 401.128 380.697 401.44 381.369 401.848C382.065 402.232 382.629 402.772 383.061 403.468C383.493 404.14 383.709 405.028 383.709 406.132C383.709 407.332 383.349 408.4 382.629 409.336C381.909 410.248 380.865 410.968 379.497 411.496C378.153 412.024 376.509 412.288 374.565 412.288ZM395.094 412.288C392.814 412.288 391.038 411.712 389.766 410.56C388.494 409.384 387.858 407.644 387.858 405.34V388.348H393.474V405.268C393.474 406.084 393.69 406.72 394.122 407.176C394.554 407.608 395.142 407.824 395.886 407.824C396.774 407.824 397.53 407.584 398.154 407.104L399.666 411.064C399.09 411.472 398.394 411.784 397.578 412C396.786 412.192 395.958 412.288 395.094 412.288ZM384.87 397.384V393.064H398.298V397.384H384.87ZM403.215 403.252L402.099 386.8H408.795L407.679 403.252H403.215ZM405.447 412.288C404.439 412.288 403.611 411.964 402.963 411.316C402.315 410.668 401.991 409.9 401.991 409.012C401.991 408.1 402.315 407.344 402.963 406.744C403.611 406.12 404.439 405.808 405.447 405.808C406.479 405.808 407.307 406.12 407.931 406.744C408.579 407.344 408.903 408.1 408.903 409.012C408.903 409.9 408.579 410.668 407.931 411.316C407.307 411.964 406.479 412.288 405.447 412.288Z" fill="white"/>
<path d="M226.96 260H197.291V281.576H209.414V295.961C209.601 303.354 206.15 304.541 197.291 304.404V318.163C197.291 318.163 203.497 320.047 209.414 318.163C215.33 316.279 227.796 307.883 226.96 295.961V260Z" fill="white" fill-opacity="0.85"/>
<path d="M226.96 260H197.291V281.576H209.414V295.961C209.601 303.354 206.15 304.541 197.291 304.404V318.163C197.291 318.163 203.497 320.047 209.414 318.163C215.33 316.279 227.796 307.883 226.96 295.961V260Z" fill="white" fill-opacity="0.85"/>
<path d="M183.671 260H154.002V281.576H166.125V295.961C166.312 303.354 162.861 304.541 154.002 304.404V318.163C154.002 318.163 160.208 320.047 166.125 318.163C172.041 316.279 184.507 307.883 183.671 295.961V260Z" fill="white" fill-opacity="0.85"/>
<path d="M183.671 260H154.002V281.576H166.125V295.961C166.312 303.354 162.861 304.541 154.002 304.404V318.163C154.002 318.163 160.208 320.047 166.125 318.163C172.041 316.279 184.507 307.883 183.671 295.961V260Z" fill="white" fill-opacity="0.85"/>
<path d="M850.96 470H821.291V491.576H833.414V505.961C833.601 513.354 830.15 514.541 821.291 514.404V528.163C821.291 528.163 827.497 530.047 833.414 528.163C839.33 526.279 851.796 517.883 850.96 505.961V470Z" fill="white" fill-opacity="0.85"/>
<path d="M850.96 470H821.291V491.576H833.414V505.961C833.601 513.354 830.15 514.541 821.291 514.404V528.163C821.291 528.163 827.497 530.047 833.414 528.163C839.33 526.279 851.796 517.883 850.96 505.961V470Z" fill="white" fill-opacity="0.85"/>
<path d="M807.671 470H778.002V491.576H790.125V505.961C790.312 513.354 786.861 514.541 778.002 514.404V528.163C778.002 528.163 784.208 530.047 790.125 528.163C796.041 526.279 808.507 517.883 807.671 505.961V470Z" fill="white" fill-opacity="0.85"/>
<path d="M807.671 470H778.002V491.576H790.125V505.961C790.312 513.354 786.861 514.541 778.002 514.404V528.163C778.002 528.163 784.208 530.047 790.125 528.163C796.041 526.279 808.507 517.883 807.671 505.961V470Z" fill="white" fill-opacity="0.85"/>
<defs>
<linearGradient id="paint0_linear_1661_374" x1="939.5" y1="0" x2="939.5" y2="924" gradientUnits="userSpaceOnUse">
<stop offset="0.215" stop-color="#A53232"/>
<stop offset="0.605"/>
</linearGradient>
</defs>
</svg>
