<svg width="73" height="59" viewBox="0 0 73 59" fill="none" xmlns="http://www.w3.org/2000/svg">
<path d="M72.9599 0H43.2907V21.5765H55.4136V35.9608C55.6009 43.3541 52.1502 44.541 43.2907 44.4037V58.1626C43.2907 58.1626 49.4967 60.0467 55.4136 58.1626C61.3305 56.2786 73.7965 47.8827 72.9599 35.9608V0Z" fill="white" fill-opacity="0.85"/>
<path d="M72.9599 0H43.2907V21.5765H55.4136V35.9608C55.6009 43.3541 52.1502 44.541 43.2907 44.4037V58.1626C43.2907 58.1626 49.4967 60.0467 55.4136 58.1626C61.3305 56.2786 73.7965 47.8827 72.9599 35.9608V0Z" fill="white" fill-opacity="0.85"/>
<path d="M29.6708 0H0.00163651V21.5765H12.1245V35.9608C12.3119 43.3541 8.86113 44.541 0.00163651 44.4037V58.1626C0.00163651 58.1626 6.20765 60.0467 12.1245 58.1626C18.0414 56.2786 30.5074 47.8827 29.6708 35.9608V0Z" fill="white" fill-opacity="0.85"/>
<path d="M29.6708 0H0.00163651V21.5765H12.1245V35.9608C12.3119 43.3541 8.86113 44.541 0.00163651 44.4037V58.1626C0.00163651 58.1626 6.20765 60.0467 12.1245 58.1626C18.0414 56.2786 30.5074 47.8827 29.6708 35.9608V0Z" fill="white" fill-opacity="0.85"/>
</svg>
